<svg version="1.2" baseProfile="tiny-ps" xmlns="http://www.w3.org/2000/svg" viewBox="0 0 800 100" width="800" height="100">
	<title>Accumulate Final Snow Nodes</title>
	<style>
		tspan { white-space:pre }
		.shp0 { fill: #00a6fb } 
	</style>
	<path class="shp0" d="M59 4C54.59 4 51 7.59 51 12C51 16.41 54.59 20 59 20C63.41 20 67 16.41 67 12C67 7.59 63.41 4 59 4ZM23 22C18.59 22 15 25.59 15 30C15 34.41 18.59 38 23 38C27.41 38 31 34.41 31 30C31 25.59 27.41 22 23 22ZM95 22C90.59 22 87 25.59 87 30C87 34.41 90.59 38 95 38C99.41 38 103 34.41 103 30C103 25.59 99.41 22 95 22ZM57 23.82L57 38.18C57.65 38.07 58.32 38 59 38C59.68 38 60.35 38.07 61 38.18L61 23.82C60.35 23.93 59.68 24 59 24C58.32 24 57.65 23.93 57 23.82ZM83.7 33.99L68.36 42.51C69.19 43.55 69.85 44.73 70.3 46.01L85.64 37.49C84.8 36.45 84.15 35.27 83.7 33.99ZM34.29 34.03C33.84 35.3 33.18 36.48 32.34 37.52L47.65 46.14C48.09 44.86 48.73 43.67 49.55 42.62L34.29 34.03ZM59 42C54.59 42 51 45.59 51 50C51 54.41 54.59 58 59 58C63.41 58 67 54.41 67 50C67 45.59 63.41 42 59 42ZM47.68 53.93L32.35 62.5C33.19 63.53 33.84 64.72 34.3 65.99L49.6 57.44C48.78 56.4 48.12 55.21 47.68 53.93ZM70.27 54.09C70.03 54.73 69.76 55.34 69.43 55.92C69.42 55.92 69.42 55.93 69.42 55.93C69.09 56.51 68.71 57.06 68.3 57.57L83.69 66.03C84.14 64.76 84.8 63.57 85.62 62.53L70.27 54.09ZM57 61.82L57 76.18C57.65 76.07 58.32 76 59 76C59.68 76 60.35 76.07 61 76.18L61 61.82C60.35 61.93 59.68 62 59 62C58.32 62 57.65 61.93 57 61.82ZM23 62C18.59 62 15 65.59 15 70C15 74.41 18.59 78 23 78C27.41 78 31 74.41 31 70C31 65.59 27.41 62 23 62ZM95 62C90.59 62 87 65.59 87 70C87 74.41 90.59 78 95 78C99.41 78 103 74.41 103 70C103 65.59 99.41 62 95 62ZM59 80C54.59 80 51 83.59 51 88C51 92.41 54.59 96 59 96C63.41 96 67 92.41 67 88C67 83.59 63.41 80 59 80Z"/>
	<path fill="#000000" aria-label="Accumulate" d="M185.37 95L200.01 95L169.63 10.09L153.53 10.09L123.15 95L137.67 95L143.77 77.68L179.27 77.68ZM175.36 66.33L147.67 66.33L161.58 26.92ZM199.4 61.33C199.4 82.43 213.06 96.1 232.34 96.1C248.81 96.1 259.54 86.95 263.33 73.77L248.32 73.77C245.76 80.73 240.63 84.39 232.34 84.39C221.11 84.39 213.67 76.09 213.67 61.33C213.67 46.69 221.11 38.39 232.34 38.39C240.63 38.39 246 42.54 248.32 49.01L263.33 49.01C259.54 34.85 248.81 26.68 232.34 26.68C213.06 26.68 199.4 40.34 199.4 61.33ZM263.45 61.33C263.45 82.43 277.11 96.1 296.39 96.1C312.86 96.1 323.59 86.95 327.38 73.77L312.37 73.77C309.81 80.73 304.68 84.39 296.39 84.39C285.16 84.39 277.72 76.09 277.72 61.33C277.72 46.69 285.16 38.39 296.39 38.39C304.68 38.39 310.05 42.54 312.37 49.01L327.38 49.01C323.59 34.85 312.86 26.68 296.39 26.68C277.11 26.68 263.45 40.34 263.45 61.33ZM393.01 27.78L379.1 27.78L379.1 65.23C379.1 77.55 372.39 83.9 362.15 83.9C352.02 83.9 345.31 77.55 345.31 65.23L345.31 27.78L331.52 27.78L331.52 67.31C331.52 86.09 343.48 95.98 359.22 95.98C367.15 95.98 374.71 92.68 379.1 86.95L379.1 95L393.01 95ZM497.44 95L511.23 95L511.23 55.35C511.23 36.56 499.27 26.68 483.54 26.68C473.78 26.68 464.26 31.8 460.11 39.98C455.48 31.19 446.57 26.68 435.96 26.68C427.9 26.68 420.58 29.97 416.07 35.46L416.07 27.78L402.16 27.78L402.16 95L416.07 95L416.07 57.42C416.07 45.1 422.78 38.76 433.03 38.76C443.15 38.76 449.86 45.1 449.86 57.42L449.86 95L463.65 95L463.65 57.42C463.65 45.1 470.36 38.76 480.61 38.76C490.73 38.76 497.44 45.1 497.44 57.42ZM580.65 27.78L566.74 27.78L566.74 65.23C566.74 77.55 560.03 83.9 549.78 83.9C539.66 83.9 532.95 77.55 532.95 65.23L532.95 27.78L519.16 27.78L519.16 67.31C519.16 86.09 531.12 95.98 546.85 95.98C554.78 95.98 562.35 92.68 566.74 86.95L566.74 95L580.65 95ZM589.8 95L603.71 95L603.71 4.72L589.8 4.72ZM608.22 61.08C608.22 81.82 622.25 96.1 639.7 96.1C650.92 96.1 658.97 90.73 663.24 85L663.24 95L677.27 95L677.27 27.78L663.24 27.78L663.24 37.54C659.09 32.05 651.29 26.68 639.94 26.68C622.25 26.68 608.22 40.34 608.22 61.08ZM663.24 61.33C663.24 75.85 653.36 84.02 642.87 84.02C632.5 84.02 622.49 75.6 622.49 61.08C622.49 46.57 632.5 38.76 642.87 38.76C653.36 38.76 663.24 46.93 663.24 61.33ZM688.62 76.33C688.62 90 696.06 95 708.02 95L719 95L719 83.41L710.46 83.41C704.6 83.41 702.65 81.34 702.65 76.33L702.65 39.12L719 39.12L719 27.78L702.65 27.78L702.65 11.06L688.62 11.06L688.62 27.78L680.69 27.78L680.69 39.12L688.62 39.12ZM750.96 38.39C761.33 38.39 769.5 44.98 769.75 55.35L732.54 55.35C734 44.74 741.57 38.39 750.96 38.39ZM782.44 74.99L767.43 74.99C764.87 80.24 760.11 84.39 751.57 84.39C741.32 84.39 733.39 77.68 732.42 66.57L783.78 66.57C784.14 64.26 784.27 62.06 784.27 59.74C784.27 39.98 770.72 26.68 751.57 26.68C731.68 26.68 718.02 40.22 718.02 61.33C718.02 82.43 732.29 96.1 751.57 96.1C768.04 96.1 778.65 86.7 782.44 74.99Z"/>
</svg>